<?xml version="1.0" encoding="iso-8859-1"?>
<!-- Generator: Adobe Illustrator 19.0.0, SVG Export Plug-In . SVG Version: 6.00 Build 0)  -->
<svg version="1.1" id="Capa_1" xmlns="http://www.w3.org/2000/svg" xmlns:xlink="http://www.w3.org/1999/xlink" x="0px" y="0px"
	 viewBox="0 0 513.504 513.504" style="enable-background:new 0 0 513.504 513.504;" xml:space="preserve">
<path style="fill:#415A6B;" d="M393.285,346.352l-9.6-5.333l0,0c21.333-36.267,20.267-46.933,14.933-100.267l-1.067-6.4
	c-2.133-19.2,3.2-49.067,18.133-66.133c7.467-8.533,17.067-12.8,27.733-12.8l0,0c10.667,1.067,19.2,6.4,25.6,16
	c12.8,18.133,14.933,48,9.6,67.2c-8.533,36.267-29.867,54.4-51.2,71.467C414.619,320.752,401.819,330.352,393.285,346.352
	C393.285,345.285,393.285,346.352,393.285,346.352z M442.352,166.085c-7.467,0-13.867,3.2-19.2,9.6
	c-12.8,13.867-17.067,39.467-14.933,57.6l1.067,6.4c4.267,35.2,5.333,53.333,0,72.533c4.267-3.2,8.533-7.467,12.8-10.667
	c20.267-16,40.533-32,48-65.067c4.267-17.067,2.133-43.733-8.533-58.667C456.219,170.352,450.885,166.085,442.352,166.085
	C443.419,166.085,442.352,166.085,442.352,166.085z"/>
<path style="fill:#66C6B9;" d="M290.885,512.752c0,0,173.867-13.867,212.267-78.933c21.333-36.267,8.533-83.2-27.733-104.533
	c-25.6-14.933-56.533-12.8-80,3.2c2.133-27.733-11.733-56.533-37.333-71.467c-36.267-21.333-83.2-8.533-103.467,28.8
	C215.152,355.952,290.885,512.752,290.885,512.752z"/>
<path style="fill:#FFFFFF;" d="M487.152,382.619c4.267,14.933,1.067,27.733-5.333,29.867c-7.467,2.133-16-8.533-20.267-23.467
	c-4.267-14.933-1.067-27.733,5.333-29.867C474.352,357.019,482.885,367.685,487.152,382.619z"/>
<path style="fill:#415A6B;" d="M120.219,191.685c-8.533-14.933-21.333-25.6-35.2-36.267c-21.333-17.067-43.733-34.133-51.2-71.467
	c-5.333-19.2-3.2-49.067,9.6-67.2c6.4-9.6,16-14.933,25.6-16l0,0c10.667,0,20.267,4.267,27.733,12.8
	c14.933,16,20.267,45.867,18.133,66.133v6.4c-5.333,54.4-6.4,64,14.933,100.267L120.219,191.685z M70.085,11.419
	c-7.467,1.067-12.8,4.267-18.133,11.733c-10.667,14.933-12.8,41.6-8.533,58.667c7.467,33.067,27.733,49.067,48,65.067
	c4.267,3.2,8.533,6.4,12.8,10.667c-5.333-19.2-4.267-37.333,0-72.533l1.067-6.4c2.133-18.133-3.2-44.8-14.933-57.6
	C83.952,14.619,77.552,11.419,70.085,11.419z"/>
<path style="fill:#F3705A;" d="M222.619,358.085c0,0-173.867-13.867-212.267-78.933c-21.333-36.267-8.533-83.2,27.733-104.533
	c25.6-14.933,56.533-12.8,80,3.2c-2.133-27.733,11.733-56.533,37.333-71.467c36.267-21.333,83.2-8.533,103.467,28.8
	C298.352,202.352,222.619,358.085,222.619,358.085z"/>
<path style="fill:#FFFFFF;" d="M210.885,129.819c-14.933-4.267-27.733-2.133-29.867,4.267c-2.133,7.467,7.467,16,22.4,21.333
	c14.933,4.267,27.733,2.133,29.867-4.267C235.419,143.685,225.819,134.085,210.885,129.819z"/>
<g>
</g>
<g>
</g>
<g>
</g>
<g>
</g>
<g>
</g>
<g>
</g>
<g>
</g>
<g>
</g>
<g>
</g>
<g>
</g>
<g>
</g>
<g>
</g>
<g>
</g>
<g>
</g>
<g>
</g>
</svg>
