<svg viewBox="0 0 48 48" xmlns="http://www.w3.org/2000/svg" xmlns:xlink="http://www.w3.org/1999/xlink" >
<defs>



 <path fill="#000000" id="i-450" d="M38.687,22.529l1.485,9.656l6.988-1.398L42.899,7.352L30.627,0.656l-6.626,11.359L17.375,0.656L5.103,7.352L0.84,30.861 l6.992,1.311l1.484-9.643l1.652,5.508L6.754,47h34.494l-4.214-18.963L38.687,22.529z M44.842,29.211l-3.012,0.604l-1.807-11.742 l1.739-5.795L44.842,29.211z M40.81,8.488L36.156,24h-8.155v-3.723l8.487-14.146L40.81,8.488z M16.627,3.344l6.237,10.693 l-1.943,3.887l-7.649-12.75L16.627,3.344z M12.445,26h7.697c-0.048,0.186-0.077,0.375-0.098,0.57 c-0.332,0.391-0.941,1.199-1.533,2.43h-5.709l0.23-1.039L12.445,26z M6.17,29.826l-3.008-0.564l3.079-16.982l1.737,5.793 L6.17,29.826z M7.191,8.488l4.322-2.357l8.487,14.146V24h-8.155L7.191,8.488z M20.001,45H9.248l3.11-14h5.368 c-0.422,1.367-0.726,3.033-0.726,5v8h3V45z M21.001,36v6h-2v-6c0-3.178,0.903-5.445,1.665-6.799c0.28,0.422,0.638,0.785,1.052,1.074 C21.354,31.217,21.001,32.92,21.001,36z M22.001,45v-1h1v-8c0-3.107,0.386-4.502,0.601-5.041C23.735,30.973,23.864,31,24.001,31 c0.003,0,0.315,0.047,0.6,0.381c0.36,0.426,0.895,1.572,0.414,4.455c-0.694,4.166-0.018,7.408,0.538,9.164H22.001z M24.001,29 c-1.103,0-2-0.898-2-2c0-1.104,0.897-2,2-2s2,0.896,2,2C26.001,28.102,25.104,29,24.001,29z M26.001,23.557 c-0.591-0.346-1.268-0.557-2-0.557c-0.731,0-1.409,0.211-2,0.557v-3.32l2.881-5.762l6.493-11.131l3.355,1.83l-8.729,14.549V23.557z M27.67,45c-0.461-1.24-1.407-4.488-0.683-8.836c0.444-2.664,0.196-4.633-0.719-5.875c0.363-0.252,0.676-0.566,0.938-0.922 c0.927,0.811,2.429,2.738,1.808,6.469c-0.695,4.166-0.018,7.408,0.538,9.164H27.67z M27.958,27.42 c0.016-0.141,0.043-0.277,0.043-0.42c0-0.348-0.059-0.68-0.142-1h7.697l-0.589,1.961L35.198,29h-5.629 C28.99,28.227,28.378,27.713,27.958,27.42z M38.754,45H31.67c-0.461-1.24-1.407-4.488-0.683-8.836 c0.359-2.156,0.13-3.848-0.345-5.164h5L38.754,45z"/> 
</defs>

<use x="0" y="0" xlink:href="#i-450"/>

</svg>